# File created by Blade
# Date/Time:  Thu Jan 22 19:08:58 2015
# Frame Rate: 120.000 fps
#------------------------------------------------------
:FULLY-SPECIFIED
:DEGREES
1945
root -2.413272 33.091076 -0.570110 8.324124 -3.108255 2.700906
RightUpLeg -2.341977 -8.402061 -3.250710
RightLeg -1.015772 -0.000000 0.000000
RightFoot -10.707621 -5.135376 4.641328
RightToeBase 5.882537 -0.000000 -0.000000
LeftUpLeg -2.578860 5.560508 2.629196
LeftLeg 2.138731 -0.000000 -0.000000
LeftFoot -10.608655 1.333170 -11.083626
LeftToeBase 7.782932 -0.000000 -0.000000
Spine -8.407909 -2.009742 -0.535402
RightShoulder -20.069206 -18.392996 -25.353862
RightArm 18.963543 29.795342 43.332783
RightForeArm -8.658140 0.000000 10.927875
RightHand 12.599378 -0.000000 5.729214
RightHandThumb1 -24.326973 -0.000000 -32.862282
LeftShoulder -25.780307 9.125181 28.794621
LeftArm 12.376257 -27.293303 -36.826231
LeftForeArm 18.546948 -0.000000 0.809713
LeftHand -1.941991 -0.000000 -8.350368
LeftHandThumb1 -26.253704 0.000000 33.147579
Head -0.999504 5.252651 -2.353622
1946
root -2.409853 33.090648 -0.569650 8.337041 -3.082641 2.710031
RightUpLeg -2.350754 -8.414639 -3.262106
RightLeg -1.011984 -0.000000 0.000000
RightFoot -10.726804 -5.151325 4.631551
RightToeBase 5.914480 -0.000000 -0.000000
LeftUpLeg -2.603869 5.537750 2.615035
LeftLeg 2.152851 -0.000000 -0.000000
LeftFoot -10.610011 1.332634 -11.075257
LeftToeBase 7.773931 -0.000000 -0.000000
Spine -8.418614 -2.003112 -0.542505
RightShoulder -20.085378 -18.394181 -25.363005
RightArm 18.983407 29.777271 43.328103
RightForeArm -8.687739 -0.000000 10.897370
RightHand 12.558075 0.000000 5.686119
RightHandThumb1 -24.326973 -0.000000 -32.862282
LeftShoulder -25.781477 9.147816 28.784166
LeftArm 12.421539 -27.312718 -36.844232
LeftForeArm 18.555576 0.000000 0.807498
LeftHand -1.922595 0.000000 -8.357915
LeftHandThumb1 -26.253704 0.000000 33.147579
Head -1.026430 5.235884 -2.364374
1947
root -2.407604 33.090590 -0.569558 8.344865 -3.070840 2.715697
RightUpLeg -2.350580 -8.429965 -3.267193
RightLeg -1.027926 -0.000000 0.000000
RightFoot -10.694753 -5.146919 4.582073
RightToeBase 5.807899 -0.000000 -0.000000
LeftUpLeg -2.620560 5.527449 2.601931
LeftLeg 2.162181 -0.000000 -0.000000
LeftFoot -10.610336 1.346766 -11.103506
LeftToeBase 7.714203 -0.000000 -0.000000
Spine -8.419124 -1.996637 -0.556063
RightShoulder -20.089751 -18.402309 -25.374230
RightArm 18.991793 29.753054 43.334336
RightForeArm -8.706077 -0.000000 10.901731
RightHand 12.592111 0.000000 5.578128
RightHandThumb1 -24.326973 -0.000000 -32.862282
LeftShoulder -25.786099 9.144021 28.803208
LeftArm 12.427773 -27.281147 -36.841768
LeftForeArm 18.579215 -0.000000 0.811255
LeftHand -1.926990 -0.000000 -8.396460
LeftHandThumb1 -26.253704 0.000000 33.147579
Head -1.054445 5.241345 -2.347580
1948
root -2.406537 33.090257 -0.569378 8.349268 -3.064035 2.706297
RightUpLeg -2.356988 -8.412064 -3.263230
RightLeg -1.014163 -0.000000 0.000000
RightFoot -10.721212 -5.161183 4.653941
RightToeBase 5.881068 -0.000000 -0.000000
LeftUpLeg -2.625699 5.488854 2.615282
LeftLeg 2.171057 -0.000000 -0.000000
LeftFoot -10.634389 1.355555 -11.052410
LeftToeBase 7.728316 -0.000000 -0.000000
Spine -8.417603 -1.979945 -0.550726
RightShoulder -20.101899 -18.414535 -25.389901
RightArm 19.024634 29.753552 43.352321
RightForeArm -8.726951 -0.000000 10.881504
RightHand 12.538384 0.000000 5.610638
RightHandThumb1 -24.326973 -0.000000 -32.862282
LeftShoulder -25.783180 9.145936 28.812708
LeftArm 12.443498 -27.253055 -36.826505
LeftForeArm 18.591005 0.000000 0.781247
LeftHand -1.897020 -0.000000 -8.433529
LeftHandThumb1 -26.253704 0.000000 33.147579
Head -1.080059 5.235216 -2.365463
1949
root -2.404736 33.090399 -0.568621 8.354272 -3.059081 2.708481
RightUpLeg -2.357824 -8.428729 -3.267456
RightLeg -1.022214 -0.000000 0.000000
RightFoot -10.693946 -5.136721 4.613090
RightToeBase 5.767371 -0.000000 -0.000000
LeftUpLeg -2.628070 5.468310 2.609393
LeftLeg 2.165260 -0.000000 -0.000000
LeftFoot -10.632925 1.371969 -11.044562
LeftToeBase 7.711539 -0.000000 -0.000000
Spine -8.418117 -1.973658 -0.556602
RightShoulder -20.098038 -18.403746 -25.414783
RightArm 19.032598 29.756905 43.357072
RightForeArm -8.750475 -0.000000 10.868834
RightHand 12.484383 -0.000000 5.660625
RightHandThumb1 -24.326973 -0.000000 -32.862282
LeftShoulder -25.792158 9.143927 28.821592
LeftArm 12.457566 -27.221065 -36.800434
LeftForeArm 18.659335 -0.000000 0.751558
LeftHand -1.888837 -0.000000 -8.456935
LeftHandThumb1 -26.253704 0.000000 33.147579
Head -1.106566 5.250420 -2.360967
1950
root -2.401756 33.090105 -0.568542 8.361039 -3.054415 2.718206
RightUpLeg -2.361345 -8.429407 -3.282746
RightLeg -1.023693 -0.000000 0.000000
RightFoot -10.725015 -5.141459 4.666706
RightToeBase 5.931965 -0.000000 -0.000000
LeftUpLeg -2.636498 5.421544 2.595364
LeftLeg 2.166489 -0.000000 -0.000000
LeftFoot -10.640747 1.415958 -11.054590
LeftToeBase 7.720518 -0.000000 -0.000000
Spine -8.420120 -1.961418 -0.566069
RightShoulder -20.099569 -18.395396 -25.448313
RightArm 19.034773 29.777784 43.372818
RightForeArm -8.773963 0.000000 10.870433
RightHand 12.489017 -0.000000 5.736597
RightHandThumb1 -24.326973 -0.000000 -32.862282
LeftShoulder -25.789265 9.144974 28.826335
LeftArm 12.465724 -27.174748 -36.758612
LeftForeArm 18.662325 -0.000000 0.703409
LeftHand -1.897795 -0.000000 -8.462489
LeftHandThumb1 -26.253704 0.000000 33.147579
Head -1.138457 5.277264 -2.372255
1951
root -2.402108 33.089922 -0.567977 8.366796 -3.045675 2.712715
RightUpLeg -2.362086 -8.431135 -3.275954
RightLeg -1.027819 -0.000000 0.000000
RightFoot -10.726776 -5.150197 4.654357
RightToeBase 5.943425 -0.000000 -0.000000
LeftUpLeg -2.645089 5.408039 2.603042
LeftLeg 2.174738 -0.000000 -0.000000
LeftFoot -10.655479 1.408447 -11.061721
LeftToeBase 7.781920 -0.000000 -0.000000
Spine -8.420661 -1.962199 -0.571013
RightShoulder -20.106661 -18.400661 -25.442602
RightArm 19.074684 29.799907 43.371214
RightForeArm -8.792124 -0.000000 10.834596
RightHand 12.486843 -0.000000 5.701629
RightHandThumb1 -24.326973 -0.000000 -32.862282
LeftShoulder -25.797137 9.128719 28.853451
LeftArm 12.458084 -27.161827 -36.713775
LeftForeArm 18.717779 -0.000000 0.670882
LeftHand -1.863278 -0.000000 -8.540765
LeftHandThumb1 -26.253704 0.000000 33.147579
Head -1.159583 5.274731 -2.363163
1952
root -2.401359 33.090492 -0.568293 8.375954 -3.043112 2.711960
RightUpLeg -2.375458 -8.443895 -3.274591
RightLeg -1.019275 -0.000000 0.000000
RightFoot -10.720648 -5.130807 4.672975
RightToeBase 5.882894 -0.000000 -0.000000
LeftUpLeg -2.656011 5.395178 2.601915
LeftLeg 2.173536 -0.000000 -0.000000
LeftFoot -10.648929 1.420000 -11.063706
LeftToeBase 7.705806 -0.000000 -0.000000
Spine -8.426418 -1.939917 -0.585682
RightShoulder -20.113432 -18.379374 -25.434174
RightArm 19.046884 29.759680 43.291450
RightForeArm -8.692669 -0.000000 10.817179
RightHand 12.422580 -0.000000 5.693860
RightHandThumb1 -24.326973 -0.000000 -32.862282
LeftShoulder -25.781162 9.121714 28.879997
LeftArm 12.444354 -27.175790 -36.668209
LeftForeArm 18.715305 0.000000 0.663265
LeftHand -1.859177 -0.000000 -8.627180
LeftHandThumb1 -26.253704 0.000000 33.147579
Head -1.160563 5.244133 -2.353130
1953
root -2.400861 33.090745 -0.567437 8.375067 -3.040841 2.711817
RightUpLeg -2.367041 -8.441303 -3.276063
RightLeg -1.030723 -0.000000 0.000000
RightFoot -10.713585 -5.132592 4.680976
RightToeBase 5.906307 -0.000000 -0.000000
LeftUpLeg -2.649466 5.377842 2.601090
LeftLeg 2.164563 -0.000000 -0.000000
LeftFoot -10.644748 1.440996 -11.049961
LeftToeBase 7.724393 -0.000000 -0.000000
Spine -8.424282 -1.935782 -0.594512
RightShoulder -20.066621 -18.299826 -25.488890
RightArm 18.929223 29.728029 43.235044
RightForeArm -8.670334 -0.000000 10.835660
RightHand 12.464224 -0.000000 5.703852
RightHandThumb1 -24.326973 -0.000000 -32.862282
LeftShoulder -25.783508 9.119521 28.891866
LeftArm 12.442721 -27.193489 -36.608683
LeftForeArm 18.720506 -0.000000 0.623273
LeftHand -1.890143 0.000000 -8.600598
LeftHandThumb1 -26.253704 0.000000 33.147579
Head -1.165864 5.243746 -2.346343
